For Colored Girls (2010)(Eng NL subs)(AC3)(DivX) TBS
 
Alternatieve titel: For Colored Girls Who Have Considered Suicide When the Rainbow Is Enuf 



Verenigde Staten
Drama
133 minuten

geregisseerd door Tyler Perry
met Thandie Newton, Whoopi Goldberg en Omari Hardwick

Gebaseerd op Ntozake Shangs bekroonde werk, bestaande uit een reeks van twintig gedichten uitgevoerd door een groep van zeven onbekende vrouwen die ieder herkenbaar zijn door een individuele kleur. De gedichten behandelen onderwerpen als liefde, verwaarlozing, verkrachting en abortus. Op het einde komen de vrouwen samen, waarbij ze de krachten van het vrouw-zijn aanroepen.


Storyline

The movie is based on Ntozake Shange's play "For Colored Girls Who Have Considered Suicide When the Rainbow Is Enuf." Unlike the original play which featured 
only 7 women known by colors performing the collection of 20 poems, the movie has given each of the 20 characters names. Each of the poems deal with intense 
issues that particularly impact women in a thought-provoking commentary on what it means to be a female of color in the world.

General
Complete name                    : For Colored Girls[2010].avi
Format                           : DivX
Format/Info                      : Hack of AVI
File size                        : 1.46 GiB
Duration                         : 2h 13mn
Overall bit rate                 : 1 562 Kbps

Video
ID                               : 0
Format                           : MPEG-4 Visual
Format profile                   : Advanced Simple@L5
Format settings, BVOP            : Yes
Format settings, QPel            : No
Format settings, GMC             : No warppoints
Format settings, Matrix          : Default (H.263)
Muxing mode                      : Packed bitstream
Codec ID                         : DX50
Codec ID/Hint                    : DivX 5
Duration                         : 2h 13mn
Bit rate                         : 1 104 Kbps
Width                            : 720 pixels
Height                           : 400 pixels
Display aspect ratio             : 16:9
Frame rate                       : 23.976 fps
Color space                      : YUV
Chroma subsampling               : 4:2:0
Bit depth                        : 8 bits
Scan type                        : Progressive
Bits/(Pixel*Frame)               : 0.160
Stream size                      : 1.03 GiB (71%)
Title                            : Video 
Writing library                  : XviD 1.2.1 (UTC 2008-12-04)

Audio
ID                               : 1
Format                           : AC-3
Format/Info                      : Audio Coding 3
Mode extension                   : CM (complete main)
Codec ID                         : 2000
Duration                         : 2h 13mn
Bit rate mode                    : Constant
Bit rate                         : 448 Kbps
Channel(s)                       : 6 channels
Channel positions                : Front: L C R, Side: L R, LFE
Sampling rate                    : 48.0 KHz
Bit depth                        : 16 bits
Stream size                      : 428 MiB (29%)
Alignment                        : Split accross interleaves
Interleave, duration             : 42 ms (1.00 video frame)
Interleave, preload duration     : 500 ms
Title                            : Audio


Source: For colored girls(2010)Dvdrip-FXG
Bron: Retail
formaat: DivX
Cover/label: Yes
audio: English 
audio code: AC3
channels: 5
Subs: Dutch and English (Extern)
 
http://www.moviemeter.nl/film/69838 
http://www.imdb.com/title/tt1405500